<svg width="16" height="16" viewBox="0 0 16 16" fill="none" xmlns="http://www.w3.org/2000/svg">
<path d="M11.9521 3.4165L13.8955 6.65674L8.27051 12.9448C8.23553 12.9796 8.19394 13.0078 8.14844 13.0269C8.10153 13.0465 8.05086 13.0562 8 13.0562C7.91731 13.0562 7.83429 13.0298 7.75195 12.9614L7.7002 12.9136L2.10254 6.65576L4.04688 3.4165H11.9521ZM5.52734 4.46533L5.38965 4.49268C5.02553 4.58377 4.71186 4.81548 4.51855 5.13721V5.13818L4.11914 5.8042L4.10645 5.82471L4.0957 5.84619L4.05566 5.92334L4.04395 5.9458L4.03418 5.96924C3.92578 6.2192 3.89112 6.49535 3.93555 6.76416C3.97999 7.03284 4.10122 7.28315 4.28418 7.48486L4.28516 7.48584L5.61816 8.95264L5.63281 8.96826L5.64844 8.98389L5.70898 9.04248L5.72656 9.06006L5.74512 9.07666C6.00736 9.30106 6.34337 9.42172 6.68848 9.4165C7.03343 9.41119 7.36488 9.28047 7.62012 9.04834L7.6377 9.03174L7.6543 9.01416L7.71289 8.95459L7.72852 8.93799L7.74316 8.92041C7.96741 8.65821 8.08822 8.32301 8.08301 7.97803C8.07772 7.63303 7.947 7.30165 7.71484 7.04639L7.06934 6.33643C7.15608 6.08954 7.1734 5.82353 7.11816 5.56787L7.08496 5.44287L7.04004 5.3208C6.94043 5.08248 6.77787 4.87557 6.56934 4.72314L6.46094 4.65186L6.33789 4.58545C6.08557 4.46643 5.80336 4.42476 5.52734 4.46533Z" fill="#A3A3A3" stroke="#A3A3A3" stroke-width="1.5"/>
</svg>
