<svg width="24" height="24" viewBox="0 0 24 24" fill="none" xmlns="http://www.w3.org/2000/svg">
<g clip-path="url(#clip0_578_3208)">
<path d="M17.9995 4.75C18.0371 4.75 18.075 4.75805 18.1089 4.77441C18.1399 4.78942 18.1666 4.81176 18.189 4.83789L18.2231 4.88867L21.2134 9.87207C21.2378 9.91297 21.2499 9.96019 21.2485 10.0078C21.2471 10.0536 21.2325 10.0974 21.2075 10.1357L21.1694 10.1846L12.6743 19.6787C12.5867 19.7669 12.4833 19.8376 12.3687 19.8857C12.2521 19.9346 12.1269 19.96 12.0005 19.96H11.9995C11.7844 19.9599 11.5738 19.8874 11.3833 19.7275L11.2954 19.6465L2.81396 10.167L2.81299 10.166C2.78123 10.1304 2.76004 10.0862 2.75244 10.0391C2.74543 9.99519 2.75102 9.95048 2.76709 9.90918L2.80029 9.84473L5.78564 4.86914L5.80908 4.83789C5.81778 4.82771 5.82708 4.8181 5.8374 4.80957L5.87158 4.78516L5.88916 4.77441L5.91162 4.76465L5.94287 4.75586L5.96826 4.75098L6.0083 4.75H17.9995ZM9.34619 7.21777C8.98248 7.04634 8.56878 7.00507 8.17529 7.10352C7.72562 7.21604 7.33888 7.50212 7.1001 7.89941V7.90039L6.49951 8.90039L6.48779 8.9209L6.47705 8.94141L6.4165 9.05762L6.40479 9.08008L6.39502 9.10352C6.26108 9.41236 6.21899 9.75381 6.27393 10.0859C6.32206 10.3764 6.44262 10.6493 6.62354 10.8799L6.70459 10.9766L8.70459 13.1768L8.71924 13.1924L8.73584 13.208L8.82568 13.2959L8.84326 13.3135L8.86182 13.3301C9.18576 13.6073 9.60055 13.7564 10.0269 13.75C10.4529 13.7435 10.862 13.5816 11.1772 13.2949L11.2124 13.2617L11.2993 13.1709L11.3149 13.1553L11.3296 13.1377C11.6067 12.8138 11.7559 12.3998 11.7495 11.9736C11.7431 11.5473 11.5813 11.1377 11.2944 10.8223L10.1646 9.58008L10.1733 9.56445L10.1851 9.54199L10.1958 9.51855C10.3716 9.12759 10.3974 8.68537 10.269 8.27637C10.1566 7.91847 9.933 7.60738 9.63232 7.3877L9.49951 7.2998L9.34619 7.21777Z" fill="#E5E5E5" stroke="#E5E5E5" stroke-width="1.5"/>
</g>
<defs>
<clipPath id="clip0_578_3208">
<rect width="24" height="24" fill="white"/>
</clipPath>
</defs>
</svg>
