<svg fill="none" height="100%" width="100%" viewBox="0 0 700 700" xmlns:xlink="http://www.w3.org/1999/xlink" xmlns="http://www.w3.org/2000/svg"><defs><clipPath id="i0"><rect height="120" width="120" y="0" x="0" /></clipPath><filter id="i1"><feColorMatrix values="0 0 0 0 1 0 0 0 0 1 0 0 0 0 1 0 0 0 1 0" type="matrix" /></filter><mask height="20000" width="20000" y="-10000" x="-10000" maskContentUnits="userSpaceOnUse" maskUnits="userSpaceOnUse" style="mask-type: alpha" mask-type="alpha" id="i2"><g transform="matrix(1,0,0,1,-60,-60)"><g filter="url(#i1)" transform="matrix(1,0,0,1,60,60)"><g transform="matrix(1,0,0,1,0,0)" id="i3"><g id="i4"><path fill="#ff8e3a" d="M0,-57.872C31.962,-57.872,57.872,-31.962,57.872,0C57.872,31.962,31.962,57.872,0,57.872C-31.962,57.872,-57.872,31.962,-57.872,0C-57.872,-31.962,-31.962,-57.872,0,-57.872Z" /></g></g></g></g></mask><g id="i5"><g transform="matrix(1,0,0,1,60,60)" id="i6"><g id="i4"><path fill="#ff8e3a" d="M0,-57.872C31.962,-57.872,57.872,-31.962,57.872,0C57.872,31.962,31.962,57.872,0,57.872C-31.962,57.872,-57.872,31.962,-57.872,0C-57.872,-31.962,-31.962,-57.872,0,-57.872Z" /></g></g><g mask="url(#i2)" transform="matrix(1,0,0,1,60,60)" id="i6"><g transform="matrix(1,0,0,1,0,0)" id="i3"><g id="i7"><g transform="translate(1.765,-1.5)"><g transform="rotate(0)"><animateTransform repeatCount="indefinite" type="rotate" attributeName="transform" dur="1.033s" begin="0s" calcMode="spline" values="0; 0; 360" keyTimes="0; 0.064516; 1" keySplines="0 0 1 1; 0.333 0 0 1" fill="freeze" /><g transform="scale(1,1) translate(-165.451,-167.359)"><g id="i8"><path fill="#ed509e" d="M223.098,51.164C255.06,51.164,280.97,77.073,280.97,109.035C280.97,140.997,255.06,166.907,223.098,166.907C191.136,166.907,165.227,140.997,165.227,109.035C165.227,77.073,191.136,51.164,223.098,51.164Z" /></g><g id="i4"><path fill="#ed509e" d="M107.804,167.811C139.766,167.811,165.676,193.72,165.676,225.682C165.676,257.644,139.766,283.554,107.804,283.554C75.842,283.554,49.933,257.644,49.933,225.682C49.933,193.72,75.842,167.811,107.804,167.811Z" /></g></g></g></g></g></g></g><g display="none" transform="matrix(1,0,0,1,60,60)" id="i6"><g transform="matrix(1,0,0,1,0,0)" id="i3"><g id="i4"><path fill="#ff8e3a" d="M0,-57.872C31.962,-57.872,57.872,-31.962,57.872,0C57.872,31.962,31.962,57.872,0,57.872C-31.962,57.872,-57.872,31.962,-57.872,0C-57.872,-31.962,-31.962,-57.872,0,-57.872Z" /></g></g></g><g transform="matrix(1,0,0,1,60,60)" id="i6"><g transform="matrix(1,0,0,1,-3.491,3.491)" opacity="0.1" id="i9"><g id="i4"><path fill="#3d3e00" d="M26.764,31.108C-5.197,31.108,-31.108,5.197,-31.108,-26.764C-31.108,-36.771,-28.548,-46.158,-24.126,-54.381C-42.124,-44.606,-54.381,-25.445,-54.381,-3.491C-54.381,28.47,-28.47,54.381,3.491,54.381C25.445,54.381,44.606,42.124,54.381,24.126C46.158,28.548,36.771,31.108,26.764,31.108Z" /></g></g></g></g><clipPath id="i10"><rect height="142" width="142" y="0" x="0" /></clipPath><filter id="i11"><feColorMatrix values="0 0 0 0 1 0 0 0 0 1 0 0 0 0 1 0 0 0 1 0" type="matrix" /></filter><mask height="20000" width="20000" y="-10000" x="-10000" maskContentUnits="userSpaceOnUse" maskUnits="userSpaceOnUse" style="mask-type: alpha" mask-type="alpha" id="i12"><g transform="matrix(1,0,0,1,-71,-71)"><g filter="url(#i11)" transform="matrix(1,0,0,1,71,71)"><g transform="matrix(1,0,0,1,0,0)" id="i13"><g id="i4"><path fill="#ff8e3a" d="M40.378,-69.818C40.378,-69.818,-66.599,37.159,-66.599,37.159C-70.943,41.503,-70.943,48.485,-66.599,52.829C-66.599,52.829,-52.868,66.56,-52.868,66.56C-48.524,70.904,-41.542,70.904,-37.198,66.56C-37.198,66.56,69.857,-40.495,69.857,-40.495C69.857,-40.495,40.378,-69.818,40.378,-69.818Z" /></g></g></g></g></mask><g id="i14"><g transform="matrix(1,0,0,1,71,71)" id="i15"><g id="i4"><path fill="#ff8e3a" d="M40.378,-69.818C40.378,-69.818,-66.599,37.159,-66.599,37.159C-70.943,41.503,-70.943,48.485,-66.599,52.829C-66.599,52.829,-52.868,66.56,-52.868,66.56C-48.524,70.904,-41.542,70.904,-37.198,66.56C-37.198,66.56,69.857,-40.495,69.857,-40.495C69.857,-40.495,40.378,-69.818,40.378,-69.818Z" /></g></g><g mask="url(#i12)" transform="matrix(1,0,0,1,71,71)" id="i15"><g transform="matrix(1,0,0,1,0,0)" id="i13"><g id="i16"><g transform="translate(-3.902,-36.685)"><animateTransform repeatCount="indefinite" type="translate" attributeName="transform" dur="1.033s" begin="0s" calcMode="spline" values="-3.902 -36.685; -3.902 -36.685; -3.902 -92.685; -3.902 -36.685" keyTimes="0; 0.064516; 0.645162; 1" keySplines="0 0 1 1; 0.333 0 0.667 1; 0.757 0 0.667 1" fill="freeze" /><g transform="scale(1,1) translate(-81.471,-334.059)"><g id="i17" transform="matrix(1,0,0,1,81.471,334.059)"><path fill="#fe6f01" d="M-170.844,-2.932C-170.844,-2.932,167.81,32.186,167.81,32.186C167.81,32.186,170.844,2.932,170.844,2.932C170.844,2.932,-167.81,-32.186,-167.81,-32.186C-167.81,-32.186,-170.844,-2.932,-170.844,-2.932Z" /></g><g id="i8" transform="matrix(1,0,0,1,75.719,389.526)"><path fill="#fe6f01" d="M-170.844,-2.932C-170.844,-2.932,167.81,32.186,167.81,32.186C167.81,32.186,170.844,2.932,170.844,2.932C170.844,2.932,-167.81,-32.186,-167.81,-32.186C-167.81,-32.186,-170.844,-2.932,-170.844,-2.932Z" /></g><g opacity="0"><animate repeatCount="indefinite" attributeName="opacity" dur="1.033s" begin="0s" fill="freeze" values="0; 0; 1; 1; 0" keyTimes="0; 0.064516; 0.193548; 0.967742; 1" keySplines="0 0 1 1; 0 0 1 1; 0 0 1 1; 0 0 1 1" calcMode="spline" /><g id="i4" transform="translate(69.967,444.993)"><path fill="#fe6f01" d="M-170.844,-2.932C-170.844,-2.932,167.81,32.186,167.81,32.186C167.81,32.186,170.844,2.932,170.844,2.932C170.844,2.932,-167.81,-32.186,-167.81,-32.186C-167.81,-32.186,-170.844,-2.932,-170.844,-2.932Z" /></g></g></g></g></g></g></g><g display="none" transform="matrix(1,0,0,1,71,71)" id="i15"><g transform="matrix(1,0,0,1,0,0)" id="i13"><g id="i4"><path fill="#ff8e3a" d="M40.378,-69.818C40.378,-69.818,-66.599,37.159,-66.599,37.159C-70.943,41.503,-70.943,48.485,-66.599,52.829C-66.599,52.829,-52.868,66.56,-52.868,66.56C-48.524,70.904,-41.542,70.904,-37.198,66.56C-37.198,66.56,69.857,-40.495,69.857,-40.495C69.857,-40.495,40.378,-69.818,40.378,-69.818Z" /></g></g></g><g transform="matrix(1,0,0,1,71,71)" id="i15"><g transform="matrix(1,0,0,1,0,8.844)" opacity="0.1" id="i18"><g id="i4"><path fill="#3d3e00" d="M-37.275,34.366C-41.619,38.71,-48.601,38.71,-52.945,34.366C-52.945,34.366,-62.798,24.514,-62.798,24.514C-62.798,24.514,-66.599,28.315,-66.599,28.315C-70.943,32.659,-70.943,39.641,-66.599,43.985C-66.599,43.985,-52.868,57.716,-52.868,57.716C-48.524,62.06,-41.542,62.06,-37.198,57.716C-37.198,57.716,69.857,-49.338,69.857,-49.338C69.857,-49.338,58.221,-60.975,58.221,-60.975C58.221,-60.975,-37.275,34.366,-37.275,34.366Z" /></g></g></g></g><filter id="i19"><feColorMatrix values="0 0 0 0 1 0 0 0 0 1 0 0 0 0 1 0 0 0 1 0" type="matrix" /></filter><mask height="20000" width="20000" y="-10000" x="-10000" maskContentUnits="userSpaceOnUse" maskUnits="userSpaceOnUse" style="mask-type: alpha" mask-type="alpha" id="i20"><g filter="url(#i19)"><g transform="translate(163,510)"><g transform="rotate(14)"><animateTransform repeatCount="indefinite" type="rotate" attributeName="transform" dur="1.033s" begin="0s" calcMode="spline" values="14; 14; -24; 14" keyTimes="0; 0.064516; 0.548387; 1" keySplines="0 0 1 1; 0.333 0 0.667 1; 1 0 0.667 1" fill="freeze" /><g transform="scale(1,1) translate(-71,-71)"><g transform="matrix(1,0,0,1,200.506,-58.544)" id="i3"><g transform="matrix(1,0,0,1,32.494,-30.456)" id="i21"><g id="i22" transform="matrix(0.731,-0.682,0.682,0.731,80,-81)"><ellipse ry="41.627" rx="156.5" cy="0" cx="0" fill="#65662e"><animate repeatCount="indefinite" attributeName="ry" dur="1.033s" begin="0s" fill="freeze" values="41.627; 41.627; 115.627; 41.627; 41.627" keyTimes="0; 0.064516; 0.67742; 0.935484; 1" keySplines="0 0 1 1; 0.333 0 0.667 1; 0.333 0 0.667 1; 0 0 1 1" calcMode="spline" /></ellipse></g></g></g></g></g></g></g></mask><filter id="i23"><feColorMatrix values="0 0 0 0 1 0 0 0 0 1 0 0 0 0 1 0 0 0 1 0" type="matrix" /></filter><mask height="20000" width="20000" y="-10000" x="-10000" maskContentUnits="userSpaceOnUse" maskUnits="userSpaceOnUse" style="mask-type: alpha" mask-type="alpha" id="i24"><g filter="url(#i23)"><g transform="translate(163,510)"><g transform="rotate(14)"><animateTransform repeatCount="indefinite" type="rotate" attributeName="transform" dur="1.033s" begin="0s" calcMode="spline" values="14; 14; -24; 14" keyTimes="0; 0.064516; 0.548387; 1" keySplines="0 0 1 1; 0.333 0 0.667 1; 1 0 0.667 1" fill="freeze" /><g transform="scale(1,1) translate(-71,-71)"><g transform="matrix(1,0,0,1,200.506,-58.544)" id="i3"><g transform="matrix(1,0,0,1,32.494,-30.456)" id="i25"><g id="i22" transform="matrix(0.731,-0.682,0.682,0.731,80,-81)"><ellipse ry="41.627" rx="156.5" cy="0" cx="0" fill="#65662e"><animate repeatCount="indefinite" attributeName="ry" dur="1.033s" begin="0s" fill="freeze" values="41.627; 41.627; 115.627; 41.627; 41.627" keyTimes="0; 0.064516; 0.67742; 0.935484; 1" keySplines="0 0 1 1; 0.333 0 0.667 1; 0.333 0 0.667 1; 0 0 1 1" calcMode="spline" /></ellipse></g></g></g></g></g></g></g></mask></defs><g id="i26"><g transform="translate(466,391)"><animateTransform repeatCount="indefinite" type="translate" attributeName="transform" dur="1.033s" begin="0s" calcMode="spline" values="466 391; 466 391; 615 610; 466 391" keyTimes="0; 0.064516; 0.196839; 1" keySplines="0 0 1 1; 0.117 0 0.117 0.5; 0.14 0.5 0.42 1" fill="freeze" /><g transform="scale(1,1) translate(-60,-60)"><g clip-path="url(#i0)"><g transform="matrix(1,0,0,1,60,60)"><g><path fill="#ff8e3a" d="M0,-57.872C31.962,-57.872,57.872,-31.962,57.872,0C57.872,31.962,31.962,57.872,0,57.872C-31.962,57.872,-57.872,31.962,-57.872,0C-57.872,-31.962,-31.962,-57.872,0,-57.872Z" /></g></g><g mask="url(#i2)" transform="matrix(1,0,0,1,60,60)"><g transform="matrix(1,0,0,1,0,0)"><g><g transform="translate(1.765,-1.5)"><g transform="rotate(0)"><animateTransform repeatCount="indefinite" type="rotate" attributeName="transform" dur="1.033s" begin="0s" calcMode="spline" values="0; 0; 360" keyTimes="0; 0.064516; 1" keySplines="0 0 1 1; 0.333 0 0 1" fill="freeze" /><g transform="scale(1,1) translate(-165.451,-167.359)"><g><path fill="#ed509e" d="M223.098,51.164C255.06,51.164,280.97,77.073,280.97,109.035C280.97,140.997,255.06,166.907,223.098,166.907C191.136,166.907,165.227,140.997,165.227,109.035C165.227,77.073,191.136,51.164,223.098,51.164Z" /></g><g><path fill="#ed509e" d="M107.804,167.811C139.766,167.811,165.676,193.72,165.676,225.682C165.676,257.644,139.766,283.554,107.804,283.554C75.842,283.554,49.933,257.644,49.933,225.682C49.933,193.72,75.842,167.811,107.804,167.811Z" /></g></g></g></g></g></g></g><g display="none" transform="matrix(1,0,0,1,60,60)"><g transform="matrix(1,0,0,1,0,0)"><g><path fill="#ff8e3a" d="M0,-57.872C31.962,-57.872,57.872,-31.962,57.872,0C57.872,31.962,31.962,57.872,0,57.872C-31.962,57.872,-57.872,31.962,-57.872,0C-57.872,-31.962,-31.962,-57.872,0,-57.872Z" /></g></g></g><g transform="matrix(1,0,0,1,60,60)"><g transform="matrix(1,0,0,1,-3.491,3.491)" opacity="0.1"><g><path fill="#3d3e00" d="M26.764,31.108C-5.197,31.108,-31.108,5.197,-31.108,-26.764C-31.108,-36.771,-28.548,-46.158,-24.126,-54.381C-42.124,-44.606,-54.381,-25.445,-54.381,-3.491C-54.381,28.47,-28.47,54.381,3.491,54.381C25.445,54.381,44.606,42.124,54.381,24.126C46.158,28.548,36.771,31.108,26.764,31.108Z" /></g></g></g></g></g></g></g><g id="i27"><g transform="translate(163,510)"><g transform="rotate(14)"><animateTransform repeatCount="indefinite" type="rotate" attributeName="transform" dur="1.033s" begin="0s" calcMode="spline" values="14; 14; -24; 14" keyTimes="0; 0.064516; 0.548387; 1" keySplines="0 0 1 1; 0.333 0 0.667 1; 1 0 0.667 1" fill="freeze" /><g transform="scale(1,1) translate(-71,-71)"><g clip-path="url(#i10)"><g transform="matrix(1,0,0,1,71,71)"><g><path fill="#ff8e3a" d="M40.378,-69.818C40.378,-69.818,-66.599,37.159,-66.599,37.159C-70.943,41.503,-70.943,48.485,-66.599,52.829C-66.599,52.829,-52.868,66.56,-52.868,66.56C-48.524,70.904,-41.542,70.904,-37.198,66.56C-37.198,66.56,69.857,-40.495,69.857,-40.495C69.857,-40.495,40.378,-69.818,40.378,-69.818Z" /></g></g><g mask="url(#i12)" transform="matrix(1,0,0,1,71,71)"><g transform="matrix(1,0,0,1,0,0)"><g><g transform="translate(-3.902,-36.685)"><animateTransform repeatCount="indefinite" type="translate" attributeName="transform" dur="1.033s" begin="0s" calcMode="spline" values="-3.902 -36.685; -3.902 -36.685; -3.902 -92.685; -3.902 -36.685" keyTimes="0; 0.064516; 0.645162; 1" keySplines="0 0 1 1; 0.333 0 0.667 1; 0.757 0 0.667 1" fill="freeze" /><g transform="scale(1,1) translate(-81.471,-334.059)"><g transform="matrix(1,0,0,1,81.471,334.059)"><path fill="#fe6f01" d="M-170.844,-2.932C-170.844,-2.932,167.81,32.186,167.81,32.186C167.81,32.186,170.844,2.932,170.844,2.932C170.844,2.932,-167.81,-32.186,-167.81,-32.186C-167.81,-32.186,-170.844,-2.932,-170.844,-2.932Z" /></g><g transform="matrix(1,0,0,1,75.719,389.526)"><path fill="#fe6f01" d="M-170.844,-2.932C-170.844,-2.932,167.81,32.186,167.81,32.186C167.81,32.186,170.844,2.932,170.844,2.932C170.844,2.932,-167.81,-32.186,-167.81,-32.186C-167.81,-32.186,-170.844,-2.932,-170.844,-2.932Z" /></g><g opacity="0"><animate repeatCount="indefinite" attributeName="opacity" dur="1.033s" begin="0s" fill="freeze" values="0; 0; 1; 1; 0" keyTimes="0; 0.064516; 0.193548; 0.967742; 1" keySplines="0 0 1 1; 0 0 1 1; 0 0 1 1; 0 0 1 1" calcMode="spline" /><g transform="translate(69.967,444.993)"><path fill="#fe6f01" d="M-170.844,-2.932C-170.844,-2.932,167.81,32.186,167.81,32.186C167.81,32.186,170.844,2.932,170.844,2.932C170.844,2.932,-167.81,-32.186,-167.81,-32.186C-167.81,-32.186,-170.844,-2.932,-170.844,-2.932Z" /></g></g></g></g></g></g></g><g display="none" transform="matrix(1,0,0,1,71,71)"><g transform="matrix(1,0,0,1,0,0)"><g><path fill="#ff8e3a" d="M40.378,-69.818C40.378,-69.818,-66.599,37.159,-66.599,37.159C-70.943,41.503,-70.943,48.485,-66.599,52.829C-66.599,52.829,-52.868,66.56,-52.868,66.56C-48.524,70.904,-41.542,70.904,-37.198,66.56C-37.198,66.56,69.857,-40.495,69.857,-40.495C69.857,-40.495,40.378,-69.818,40.378,-69.818Z" /></g></g></g><g transform="matrix(1,0,0,1,71,71)"><g transform="matrix(1,0,0,1,0,8.844)" opacity="0.1"><g><path fill="#3d3e00" d="M-37.275,34.366C-41.619,38.71,-48.601,38.71,-52.945,34.366C-52.945,34.366,-62.798,24.514,-62.798,24.514C-62.798,24.514,-66.599,28.315,-66.599,28.315C-70.943,32.659,-70.943,39.641,-66.599,43.985C-66.599,43.985,-52.868,57.716,-52.868,57.716C-48.524,62.06,-41.542,62.06,-37.198,57.716C-37.198,57.716,69.857,-49.338,69.857,-49.338C69.857,-49.338,58.221,-60.975,58.221,-60.975C58.221,-60.975,-37.275,34.366,-37.275,34.366Z" /></g></g></g></g></g></g></g></g><g id="i27"><g transform="translate(163,510)"><g transform="rotate(14)"><animateTransform repeatCount="indefinite" type="rotate" attributeName="transform" dur="1.033s" begin="0s" calcMode="spline" values="14; 14; -24; 14" keyTimes="0; 0.064516; 0.548387; 1" keySplines="0 0 1 1; 0.333 0 0.667 1; 1 0 0.667 1" fill="freeze" /><g transform="scale(1,1) translate(-71,-71)"><g transform="matrix(1,0,0,1,200.506,-58.544)" id="i3"><g id="i4"><path d="M-4.422,4.461C-28.858,-19.975,-4.474,-22.101,-3.388,-57.786C-17.71,-42.1,43.823,-119.794,-82.851,50.696C-84.946,54.187,-86.962,57.678,-89.057,61.091C-89.057,61.091,-61.052,89.096,-61.052,89.096C-57.561,87.001,-55.403,83.771,-51.99,81.676C-49.769,77.328,48.108,6.934,61.799,-4.129C40.605,-16.961,19,12.13,-4.422,4.461C-4.422,4.461,-4.422,4.461,-4.422,4.461Z" fill="#9c73f8"><animate repeatCount="indefinite" attributeName="d" dur="1.033s" begin="0s" calcMode="spline" values="M-4.422,4.461C-28.858,-19.975,-4.474,-22.101,-3.388,-57.786C-17.71,-42.1,43.823,-119.794,-82.851,50.696C-84.946,54.187,-86.962,57.678,-89.057,61.091C-89.057,61.091,-61.052,89.096,-61.052,89.096C-57.561,87.001,-55.403,83.771,-51.99,81.676C-49.769,77.328,48.108,6.934,61.799,-4.129C40.605,-16.961,19,12.13,-4.422,4.461C-4.422,4.461,-4.422,4.461,-4.422,4.461Z; M-4.422,4.461C-28.858,-19.975,-4.474,-22.101,-3.388,-57.786C-17.71,-42.1,43.823,-119.794,-82.851,50.696C-84.946,54.187,-86.962,57.678,-89.057,61.091C-89.057,61.091,-61.052,89.096,-61.052,89.096C-57.561,87.001,-55.403,83.771,-51.99,81.676C-49.769,77.328,48.108,6.934,61.799,-4.129C40.605,-16.961,19,12.13,-4.422,4.461C-4.422,4.461,-4.422,4.461,-4.422,4.461Z; M-4.422,4.461C-28.858,-19.975,-8.225,-25.397,-7.139,-61.082C-20.598,-42.695,33.151,-106.331,-82.851,50.696C-84.946,54.187,-86.962,57.678,-89.057,61.091C-89.057,61.091,-61.052,89.096,-61.052,89.096C-57.561,87.001,-55.263,83.899,-51.85,81.804C-45.388,75.252,46.946,8.14,63.548,-2.411C40.828,-13.778,19.099,13.895,-4.422,4.461C-4.422,4.461,-4.422,4.461,-4.422,4.461Z; M-4.422,4.461C-28.858,-19.975,-40.107,-53.411,-39.021,-89.096C-45.149,-47.748,-57.561,8.107,-82.851,50.696C-84.946,54.187,-86.962,57.678,-89.057,61.091C-89.057,61.091,-61.052,89.096,-61.052,89.096C-57.561,87.001,-54.07,84.985,-50.657,82.89C-8.145,57.6,47.709,45.265,89.057,39.059C53.372,40.145,19.937,28.897,-4.422,4.461C-4.422,4.461,-4.422,4.461,-4.422,4.461Z; M-4.422,4.461C-28.858,-19.975,-14.192,-30.64,-13.106,-66.325C-25.193,-43.64,16.172,-84.912,-82.851,50.696C-84.946,54.187,-86.962,57.678,-89.057,61.091C-89.057,61.091,-61.052,89.096,-61.052,89.096C-57.561,87.001,-54.07,84.985,-50.657,82.89C-7.636,34.573,46.904,15.774,66.879,4.474C41.733,-4.562,19.256,16.703,-4.422,4.461C-4.422,4.461,-4.422,4.461,-4.422,4.461Z; M-4.422,4.461C-28.858,-19.975,-4.474,-22.101,-3.388,-57.786C-17.71,-42.1,43.823,-119.794,-82.851,50.696C-84.946,54.187,-86.962,57.678,-89.057,61.091C-89.057,61.091,-61.052,89.096,-61.052,89.096C-57.561,87.001,-55.403,83.771,-51.99,81.676C-49.769,77.328,48.108,6.934,61.799,-4.129C40.605,-16.961,19,12.13,-4.422,4.461C-4.422,4.461,-4.422,4.461,-4.422,4.461Z; M-4.422,4.461C-28.858,-19.975,-4.474,-22.101,-3.388,-57.786C-17.71,-42.1,43.823,-119.794,-82.851,50.696C-84.946,54.187,-86.962,57.678,-89.057,61.091C-89.057,61.091,-61.052,89.096,-61.052,89.096C-57.561,87.001,-55.403,83.771,-51.99,81.676C-49.769,77.328,48.108,6.934,61.799,-4.129C40.605,-16.961,19,12.13,-4.422,4.461C-4.422,4.461,-4.422,4.461,-4.422,4.461Z; M-4.422,4.461C-28.858,-19.975,-4.474,-22.101,-3.388,-57.786C-17.71,-42.1,43.823,-119.794,-82.851,50.696C-84.946,54.187,-86.962,57.678,-89.057,61.091C-89.057,61.091,-61.052,89.096,-61.052,89.096C-57.561,87.001,-55.403,83.771,-51.99,81.676C-49.769,77.328,48.108,6.934,61.799,-4.129C40.605,-16.961,19,12.13,-4.422,4.461C-4.422,4.461,-4.422,4.461,-4.422,4.461Z" keyTimes="0; 0.064516; 0.16129; 0.67742; 0.83871; 0.870968; 0.935484; 1" keySplines="0 0 1 1; 0.333 0 0.667 1; 0.333 0 0.667 1; 0.333 0 0.667 1; 0.333 0 0.667 1; 0.333 0 0.667 1; 0 0 1 1" fill="freeze" /></path></g></g></g></g></g></g><g mask="url(#i20)" id="i27"><g transform="translate(163,510)"><g transform="rotate(14)"><animateTransform repeatCount="indefinite" type="rotate" attributeName="transform" dur="1.033s" begin="0s" calcMode="spline" values="14; 14; -24; 14" keyTimes="0; 0.064516; 0.548387; 1" keySplines="0 0 1 1; 0.333 0 0.667 1; 1 0 0.667 1" fill="freeze" /><g transform="scale(1,1) translate(-71,-71)"><g transform="matrix(1,0,0,1,200.506,-58.544)" id="i3"><g transform="matrix(1,0,0,1,32.494,-30.456)" id="i28"><g id="i29"><g transform="translate(82.5,-80)"><g transform="rotate(-27)"><animateTransform repeatCount="indefinite" type="rotate" attributeName="transform" dur="1.033s" begin="0s" calcMode="spline" values="-27; -27; 0; -27; -27" keyTimes="0; 0.064516; 0.67742; 0.935484; 1" keySplines="0 0 1 1; 0.333 0 0.667 1; 0.333 0 0.667 1; 0 0 1 1" fill="freeze" /><g transform="scale(1.06,0.44)"><animateTransform repeatCount="indefinite" type="scale" attributeName="transform" dur="1.033s" begin="0s" calcMode="spline" values="1.06 0.44; 1.06 0.44; 1 1; 1.06 0.44; 1.06 0.44" keyTimes="0; 0.064516; 0.67742; 0.935484; 1" keySplines="0 0 1 1; 0.333 0 0.667 1; 0.333 0 0.667 1; 0 0 1 1" fill="freeze" /><g transform="translate(-82.5,80)"><g transform="matrix(1,0,0,1,0,0)" id="i30"><g id="i31"><path stroke-width="8" stroke="#e3e3e3" d="M-51.5,-72C-51.5,-72,73,55.5,73,55.5C73,55.5,118,40.5,118,40.5C118,40.5,-41.5,-114,-41.5,-114" /></g><g id="i32"><path stroke-width="8" stroke="#e3e3e3" d="M-21,-156C-21,-156,153.5,21,153.5,21C153.5,21,179,-12,179,-12C179,-12,14.5,-174,14.5,-174C14.5,-174,45,-198.5,45,-198.5C45,-198.5,202,-42.5,202,-42.5C202,-42.5,222.5,-83,222.5,-83C222.5,-83,89,-212.5,89,-212.5" /></g></g></g></g></g></g></g></g></g></g></g></g></g><g display="none" id="i27"><g transform="translate(163,510)"><g transform="rotate(14)"><animateTransform repeatCount="indefinite" type="rotate" attributeName="transform" dur="1.033s" begin="0s" calcMode="spline" values="14; 14; -24; 14" keyTimes="0; 0.064516; 0.548387; 1" keySplines="0 0 1 1; 0.333 0 0.667 1; 1 0 0.667 1" fill="freeze" /><g transform="scale(1,1) translate(-71,-71)"><g transform="matrix(1,0,0,1,200.506,-58.544)" id="i3"><g transform="matrix(1,0,0,1,32.494,-30.456)" id="i21"><g id="i22" transform="matrix(0.731,-0.682,0.682,0.731,80,-81)"><ellipse ry="41.627" rx="156.5" cy="0" cx="0" fill="#65662e"><animate repeatCount="indefinite" attributeName="ry" dur="1.033s" begin="0s" fill="freeze" values="41.627; 41.627; 115.627; 41.627; 41.627" keyTimes="0; 0.064516; 0.67742; 0.935484; 1" keySplines="0 0 1 1; 0.333 0 0.667 1; 0.333 0 0.667 1; 0 0 1 1" calcMode="spline" /></ellipse></g></g></g></g></g></g></g><g mask="url(#i24)" id="i27"><g transform="translate(163,510)"><g transform="rotate(14)"><animateTransform repeatCount="indefinite" type="rotate" attributeName="transform" dur="1.033s" begin="0s" calcMode="spline" values="14; 14; -24; 14" keyTimes="0; 0.064516; 0.548387; 1" keySplines="0 0 1 1; 0.333 0 0.667 1; 1 0 0.667 1" fill="freeze" /><g transform="scale(1,1) translate(-71,-71)"><g transform="matrix(1,0,0,1,200.506,-58.544)" id="i3"><g transform="matrix(1,0,0,1,32.494,-30.456)" id="i28"><g id="i29"><g transform="translate(82.5,-80)"><g transform="rotate(-27)"><animateTransform repeatCount="indefinite" type="rotate" attributeName="transform" dur="1.033s" begin="0s" calcMode="spline" values="-27; -27; 0; -27; -27" keyTimes="0; 0.064516; 0.67742; 0.935484; 1" keySplines="0 0 1 1; 0.333 0 0.667 1; 0.333 0 0.667 1; 0 0 1 1" fill="freeze" /><g transform="scale(1.06,0.44)"><animateTransform repeatCount="indefinite" type="scale" attributeName="transform" dur="1.033s" begin="0s" calcMode="spline" values="1.06 0.44; 1.06 0.44; 1 1; 1.06 0.44; 1.06 0.44" keyTimes="0; 0.064516; 0.67742; 0.935484; 1" keySplines="0 0 1 1; 0.333 0 0.667 1; 0.333 0 0.667 1; 0 0 1 1" fill="freeze" /><g transform="translate(-82.5,80)"><g id="i31"><path stroke-width="8" stroke="#e3e3e3" d="M-58,-29.5C-58,-29.5,136.5,-217.5,136.5,-217.5C136.5,-217.5,177.5,-204,177.5,-204C177.5,-204,-40.5,11,-40.5,11C-40.5,11,-13,39.5,-13,39.5C-13,39.5,205.5,-176,205.5,-176C205.5,-176,223,-135.5,223,-135.5C223,-135.5,25.5,57.5,25.5,57.5" /></g></g></g></g></g></g></g></g></g></g></g></g><g display="none" id="i27"><g transform="translate(163,510)"><g transform="rotate(14)"><animateTransform repeatCount="indefinite" type="rotate" attributeName="transform" dur="1.033s" begin="0s" calcMode="spline" values="14; 14; -24; 14" keyTimes="0; 0.064516; 0.548387; 1" keySplines="0 0 1 1; 0.333 0 0.667 1; 1 0 0.667 1" fill="freeze" /><g transform="scale(1,1) translate(-71,-71)"><g transform="matrix(1,0,0,1,200.506,-58.544)" id="i3"><g transform="matrix(1,0,0,1,32.494,-30.456)" id="i25"><g id="i22" transform="matrix(0.731,-0.682,0.682,0.731,80,-81)"><ellipse ry="41.627" rx="156.5" cy="0" cx="0" fill="#65662e"><animate repeatCount="indefinite" attributeName="ry" dur="1.033s" begin="0s" fill="freeze" values="41.627; 41.627; 115.627; 41.627; 41.627" keyTimes="0; 0.064516; 0.67742; 0.935484; 1" keySplines="0 0 1 1; 0.333 0 0.667 1; 0.333 0 0.667 1; 0 0 1 1" calcMode="spline" /></ellipse></g></g></g></g></g></g></g><g id="i27"><g transform="translate(163,510)"><g transform="rotate(14)"><animateTransform repeatCount="indefinite" type="rotate" attributeName="transform" dur="1.033s" begin="0s" calcMode="spline" values="14; 14; -24; 14" keyTimes="0; 0.064516; 0.548387; 1" keySplines="0 0 1 1; 0.333 0 0.667 1; 1 0 0.667 1" fill="freeze" /><g transform="scale(1,1) translate(-71,-71)"><g transform="matrix(1,0,0,1,200.506,-58.544)" id="i3"><g transform="matrix(1,0,0,1,32.494,-30.456)" id="i28"><g id="i22" transform="matrix(0.731,-0.682,0.682,0.731,80,-81)"><ellipse ry="41.627" rx="156.5" cy="0" cx="0" stroke-width="29" stroke="#5100ff"><animate repeatCount="indefinite" attributeName="ry" dur="1.033s" begin="0s" fill="freeze" values="41.627; 41.627; 115.627; 41.627; 41.627" keyTimes="0; 0.064516; 0.67742; 0.935484; 1" keySplines="0 0 1 1; 0.333 0 0.667 1; 0.333 0 0.667 1; 0 0 1 1" calcMode="spline" /></ellipse></g></g></g></g></g></g></g><g opacity="0.1" id="i33"><g transform="translate(453.5,678)"><animateTransform repeatCount="indefinite" type="translate" attributeName="transform" dur="1.033s" begin="0s" calcMode="spline" values="453.5 678; 453.5 678; 612.5 678; 453.5 678; 453.5 678" keyTimes="0; 0.064516; 0.193549; 0.935484; 1" keySplines="0 0 1 1; 0 0 1 1; 0 0 1 1; 0 0 1 1" fill="freeze" /><g transform="scale(0.43,1)"><animateTransform repeatCount="indefinite" type="scale" attributeName="transform" dur="1.033s" begin="0s" calcMode="spline" values="0.43 1; 0.43 1; 1.01 1; 0.43 1; 0.43 1" keyTimes="0; 0.064516; 0.193549; 0.935484; 1" keySplines="0 0 1 1; 0 0 1 1; 0 0 1 1; 0 0 1 1" fill="freeze" /><g transform="translate(-71.5,-309)"><g id="i22" transform="matrix(1,0,0,1,71.5,309)"><ellipse ry="8" rx="52.5" cy="0" cx="0" fill="#3d3e00" /></g></g></g></g></g><g opacity="0.1" id="i34"><g transform="translate(104.098,678)"><animateTransform repeatCount="indefinite" type="translate" attributeName="transform" dur="1.033s" begin="0s" calcMode="spline" values="245.5 678; 104.098 678; 137.5 678; 104.098 678" keyTimes="0; 0.064516; 0.48387; 1" keySplines="0.333 0 0.667 1; 0.333 0 0.667 1; 0.333 0 0.667 1" fill="freeze" /><g transform="scale(0.923,1)"><animateTransform repeatCount="indefinite" type="scale" attributeName="transform" dur="1.033s" begin="0s" calcMode="spline" values="3.17 1; 0.923 1; 1.24 1; 0.923 1" keyTimes="0; 0.064516; 0.48387; 1" keySplines="0.333 0 0.667 1; 0.333 0 0.667 1; 0.333 0 0.667 1" fill="freeze" /><g transform="translate(-71.5,-309)"><g id="i22" transform="matrix(1,0,0,1,71.5,309)"><ellipse ry="8" rx="52.5" cy="0" cx="0" fill="#3d3e00" /></g></g></g></g></g></svg>